<svg width="20" height="19" viewBox="0 0 20 19" fill="none" xmlns="http://www.w3.org/2000/svg">
<path fill-rule="evenodd" clip-rule="evenodd" d="M8.49298 16C10.339 16 12.036 15.365 13.39 14.312L17.786 18.708L19.2 17.294L14.804 12.898C15.858 11.543 16.493 9.846 16.493 8C16.493 3.589 12.904 0 8.49298 0C4.08198 0 0.492981 3.589 0.492981 8C0.492981 12.411 4.08198 16 8.49298 16ZM8.49298 2C11.802 2 14.493 4.691 14.493 8C14.493 11.309 11.802 14 8.49298 14C5.18398 14 2.49298 11.309 2.49298 8C2.49298 4.691 5.18398 2 8.49298 2ZM10.493 8C10.493 7.468 10.284 6.966 9.90498 6.586C9.14898 5.832 7.83898 5.83 7.07898 6.588L5.66698 5.172C7.17998 3.66 9.80498 3.66 11.319 5.172C12.077 5.931 12.493 6.935 12.493 8H10.493Z" fill="#003360"/>
</svg>
