<svg width="16" height="18" viewBox="0 0 16 18" fill="none" xmlns="http://www.w3.org/2000/svg">
<path fill-rule="evenodd" clip-rule="evenodd" d="M3.83577 17.3337C2.91661 17.3337 2.16911 16.5862 2.16911 15.667V5.66699H0.502441V4.00033H3.00244H3.83577V2.33366C3.83577 1.41449 4.58327 0.666992 5.50244 0.666992H10.5024C11.4216 0.666992 12.1691 1.41449 12.1691 2.33366V4.00033H13.0024H15.5024V5.66699H13.8358V15.667C13.8358 16.5862 13.0883 17.3337 12.1691 17.3337H3.83577ZM10.5024 2.33366H5.50244V4.00033H10.5024V2.33366ZM4.66911 5.66699H11.3358H12.1691L12.1699 15.667H3.83577V5.66699H4.66911ZM5.50244 7.33366H7.16911V14.0003H5.50244V7.33366ZM8.83577 7.33366H10.5024V14.0003H8.83577V7.33366Z" fill="#D42D11"/>
</svg>
