<svg width="33" height="32" viewBox="0 0 33 32" fill="none" xmlns="http://www.w3.org/2000/svg">
<g clip-path="url(#clip0)">
<rect x="0.0932617" width="32" height="32" rx="4" fill="#008556"/>
<path fill-rule="evenodd" clip-rule="evenodd" d="M10.7619 22.0001C10.8159 22.0001 10.8699 21.9934 10.9232 21.9801L13.5899 21.3134C13.7072 21.2841 13.8145 21.2234 13.8999 21.1381L22.0952 12.9427C22.3472 12.6907 22.4859 12.3561 22.4859 12.0001C22.4859 11.6441 22.3472 11.3094 22.0952 11.0574L21.0379 10.0001C20.5339 9.49607 19.6565 9.49607 19.1525 10.0001L10.9572 18.1954C10.8719 18.2807 10.8112 18.3881 10.7819 18.5047L10.1152 21.1714C10.0579 21.3987 10.1252 21.6387 10.2905 21.8047C10.4165 21.9314 10.5872 22.0001 10.7619 22.0001ZM20.0952 10.9427L21.1525 12.0001L20.0952 13.0574L19.0379 12.0001L20.0952 10.9427ZM18.0952 12.9427L12.0305 19.0074L11.6779 20.4167L13.0872 20.0647L19.1525 14.0001L18.0952 12.9427Z" fill="white"/>
</g>
<defs>
<clipPath id="clip0">
<rect width="32" height="32" fill="white" transform="translate(0.0932617)"/>
</clipPath>
</defs>
</svg>
