<svg width="17" height="16" viewBox="0 0 17 16" fill="none" xmlns="http://www.w3.org/2000/svg">
<path fill-rule="evenodd" clip-rule="evenodd" d="M7.23562 11.9997C8.46628 11.9997 9.59762 11.5763 10.5003 10.8743L13.4309 13.805L14.3736 12.8623L11.4429 9.93167C12.1456 9.02834 12.5689 7.89701 12.5689 6.66634C12.5689 3.72567 10.1763 1.33301 7.23562 1.33301C4.29495 1.33301 1.90228 3.72567 1.90228 6.66634C1.90228 9.60701 4.29495 11.9997 7.23562 11.9997ZM7.23562 2.66634C9.44162 2.66634 11.2356 4.46034 11.2356 6.66634C11.2356 8.87234 9.44162 10.6663 7.23562 10.6663C5.02962 10.6663 3.23562 8.87234 3.23562 6.66634C3.23562 4.46034 5.02962 2.66634 7.23562 2.66634ZM8.56895 6.66634C8.56895 6.31168 8.42962 5.97701 8.17695 5.72368C7.67295 5.22101 6.79962 5.21968 6.29295 5.72501L5.35162 4.78101C6.36028 3.77301 8.11028 3.77301 9.11962 4.78101C9.62495 5.28701 9.90228 5.95634 9.90228 6.66634H8.56895Z" fill="#B2C1CF"/>
</svg>
