<svg width="15" height="15" viewBox="0 0 15 15" fill="none" xmlns="http://www.w3.org/2000/svg">
<g id="icon">
<path id="&#237;&#175;&#128;" fill-rule="evenodd" clip-rule="evenodd" d="M11.1367 14.3434C11.9505 14.3434 12.3607 13.9723 12.3607 13.126V12.4684H13.0052C14.2227 12.4684 14.8737 11.8434 14.8737 10.626V4.89681C14.8737 3.67936 14.2227 3.05436 13.0052 3.05436H12.4128V2.72233C12.4128 1.50488 11.8073 0.958008 10.6419 0.958008H5.13411C4.02734 0.958008 3.36328 1.50488 3.36328 2.72233V3.05436H2.77083C1.61198 3.05436 0.902344 3.67936 0.902344 4.89681V10.626C0.902344 11.8434 1.55339 12.4684 2.77083 12.4684H3.41536V13.126C3.41536 13.9723 3.82552 14.3434 4.63932 14.3434H11.1367ZM11.3971 3.05436H4.37891V2.65072C4.37891 2.14941 4.63281 1.90202 5.1276 1.90202H10.6484C11.1432 1.90202 11.3971 2.14941 11.3971 2.65072V3.05436ZM3.41536 11.4788H2.76432C2.23047 11.4788 1.95703 11.1989 1.95703 10.6715V4.85124C1.95703 4.31738 2.23047 4.03743 2.76432 4.03743H13.0117C13.5456 4.03743 13.819 4.31738 13.819 4.85124V10.6715C13.819 11.1989 13.5456 11.4788 13.0117 11.4788H12.3607V7.85905C12.3607 7.0127 11.9505 6.6416 11.1367 6.6416H4.63932C3.86458 6.6416 3.41536 7.0127 3.41536 7.85905V11.4788ZM10.8503 13.3734H4.92578C4.61328 13.3734 4.45052 13.2171 4.45052 12.8916V8.08691C4.45052 7.7679 4.61328 7.61816 4.92578 7.61816H10.8503C11.1693 7.61816 11.3255 7.7679 11.3255 8.08691V12.8916C11.3255 13.2171 11.1693 13.3734 10.8503 13.3734ZM9.9974 9.81868C10.2188 9.81868 10.3815 9.64941 10.3815 9.42806C10.3815 9.21973 10.2188 9.05697 9.9974 9.05697H5.79167C5.5638 9.05697 5.40104 9.21973 5.40104 9.42806C5.40104 9.64941 5.5638 9.81868 5.79167 9.81868H9.9974ZM9.9974 11.9541C10.2188 11.9541 10.3815 11.7913 10.3815 11.583C10.3815 11.3617 10.2188 11.1924 9.9974 11.1924H5.79167C5.5638 11.1924 5.40104 11.3617 5.40104 11.583C5.40104 11.7913 5.5638 11.9541 5.79167 11.9541H9.9974Z" fill="#7E98AE"/>
</g>
</svg>
