<svg width="14" height="14" viewBox="0 0 14 14" fill="none" xmlns="http://www.w3.org/2000/svg">
<g id="icon">
<path id="Combined Shape" fill-rule="evenodd" clip-rule="evenodd" d="M0.896614 9.75701L1.56328 10.9103C1.91728 11.5217 2.76928 11.751 3.38328 11.397L3.73595 11.193C4.12395 11.4977 4.54995 11.7477 4.99995 11.9343V12.333C4.99995 13.0683 5.59795 13.6663 6.33328 13.6663H7.66661C8.40195 13.6663 8.99995 13.0683 8.99995 12.333V11.9343C9.44995 11.7477 9.87595 11.4977 10.2639 11.1937L10.6166 11.3977C11.2319 11.751 12.0819 11.523 12.4373 10.9103L13.1033 9.75767C13.4713 9.12101 13.2526 8.30367 12.6159 7.93634L12.2793 7.74167C12.3153 7.49434 12.3333 7.24701 12.3333 6.99967C12.3333 6.75234 12.3153 6.50434 12.2793 6.25901L12.6159 6.06434C13.2526 5.69634 13.4713 4.87967 13.1033 4.24301L12.4373 3.09034C12.0833 2.47701 11.2319 2.24701 10.6166 2.60234L10.2639 2.80634C9.87595 2.50167 9.44995 2.25167 8.99995 2.06501V1.66634C8.99995 0.931008 8.40195 0.333008 7.66661 0.333008H6.33328C5.59795 0.333008 4.99995 0.931008 4.99995 1.66634V2.06501C4.54995 2.25167 4.12395 2.50167 3.73595 2.80567L3.38328 2.60167C2.76728 2.24767 1.91661 2.47701 1.56261 3.08967L0.896614 4.24234C0.528614 4.87901 0.747281 5.69634 1.38395 6.06367L1.72061 6.25834C1.68461 6.50434 1.66661 6.75234 1.66661 6.99967C1.66661 7.24701 1.68461 7.49434 1.72061 7.74034L1.38395 7.93501C0.747281 8.30301 0.528614 9.12034 0.896614 9.75701ZM3.11395 7.91834C3.03861 7.61634 2.99995 7.30701 2.99995 6.99967C2.99995 6.69167 3.03861 6.38234 3.11328 6.08101C3.18528 5.79234 3.05795 5.49101 2.79995 5.34234L2.05128 4.90901L2.71661 3.75634L3.47995 4.19767C3.73595 4.34501 4.05795 4.30767 4.27195 4.10301C4.72728 3.67167 5.27661 3.34901 5.86128 3.17034C6.14195 3.08501 6.33328 2.82567 6.33328 2.53301V1.66634H7.66661V2.53301C7.66661 2.82567 7.85795 3.08501 8.13861 3.17034C8.72328 3.34967 9.27261 3.67167 9.72795 4.10301C9.94195 4.30767 10.2653 4.34434 10.5199 4.19767L11.2826 3.75701L11.9493 4.90967L11.1999 5.34234C10.9419 5.49167 10.8146 5.79301 10.8866 6.08101C10.9613 6.38234 10.9999 6.69167 10.9999 6.99967C10.9999 7.30701 10.9613 7.61634 10.8859 7.91834C10.8146 8.20701 10.9419 8.50834 11.1999 8.65701L11.9486 9.08967L11.2833 10.2423L10.5199 9.80167C10.2646 9.65434 9.94195 9.69101 9.72795 9.89634C9.27261 10.3277 8.72328 10.6503 8.13861 10.829C7.85795 10.9143 7.66661 11.1737 7.66661 11.4663L7.66795 12.333H6.33328V11.4663C6.33328 11.1737 6.14195 10.9143 5.86128 10.829C5.27661 10.6497 4.72728 10.3277 4.27195 9.89634C4.14528 9.77501 3.97995 9.71301 3.81328 9.71301C3.69861 9.71301 3.58395 9.74234 3.47995 9.80234L2.71728 10.2437L2.05061 9.09101L2.79995 8.65701C3.05795 8.50834 3.18528 8.20701 3.11395 7.91834ZM6.99995 9.66634C8.47061 9.66634 9.66661 8.47034 9.66661 6.99967C9.66661 5.52901 8.47061 4.33301 6.99995 4.33301C5.52928 4.33301 4.33328 5.52901 4.33328 6.99967C4.33328 8.47034 5.52928 9.66634 6.99995 9.66634ZM6.99995 5.66634C7.72261 5.66634 8.33328 6.27701 8.33328 6.99967C8.33328 7.72234 7.72261 8.33301 6.99995 8.33301C6.27728 8.33301 5.66661 7.72234 5.66661 6.99967C5.66661 6.27701 6.27728 5.66634 6.99995 5.66634Z" fill="#7E98AE"/>
</g>
</svg>
