<svg width="18" height="18" viewBox="0 0 18 18" fill="none" xmlns="http://www.w3.org/2000/svg">
<path fill-rule="evenodd" clip-rule="evenodd" d="M14.25 9.75H12.75V11.25H13.4347C13.1085 13.1025 11.6025 14.6033 9.75 14.9295V9.75H11.25V8.25H9.75V7.002C10.9072 6.65775 11.7855 5.55975 11.7855 4.28625C11.7855 2.7495 10.536 1.5 9 1.5C7.464 1.5 6.2145 2.7495 6.2145 4.28625C6.2145 5.55975 7.09275 6.65775 8.25 7.002V8.25H6.75V9.75H8.25V14.9295C6.3975 14.6033 4.89075 13.1025 4.56525 11.25H5.25V9.75H3.75C3.33525 9.75 3 10.0852 3 10.5C3 13.4985 5.33625 16.062 8.25 16.4452V16.5H9.75V16.4452C12.6637 16.062 15 13.4985 15 10.5C15 10.0852 14.6648 9.75 14.25 9.75ZM7.7145 4.28625C7.7145 3.5775 8.29125 3 9 3C9.70875 3 10.2855 3.5775 10.2855 4.28625C10.2855 4.9995 9.68475 5.625 9 5.625C8.31525 5.625 7.7145 4.9995 7.7145 4.28625Z" fill="#B2C1CF"/>
</svg>
