<svg width="18" height="18" viewBox="0 0 18 18" fill="none" xmlns="http://www.w3.org/2000/svg">
<path fill-rule="evenodd" clip-rule="evenodd" d="M14.8358 8.53125C14.6932 8.3535 14.478 8.25 14.25 8.25H9.75V6.75H12.75C13.5773 6.75 14.25 6.07725 14.25 5.25V3C14.25 2.17275 13.5773 1.5 12.75 1.5H3.75C3.522 1.5 3.30675 1.6035 3.16425 1.78125L1.66425 3.65625C1.44525 3.93 1.44525 4.32 1.66425 4.59375L3.16425 6.46875C3.30675 6.6465 3.522 6.75 3.75 6.75H8.25V8.25H5.25C4.42275 8.25 3.75 8.92275 3.75 9.75V12C3.75 12.8273 4.42275 13.5 5.25 13.5H8.25V16.5H9.75V13.5H14.25C14.478 13.5 14.6932 13.3965 14.8358 13.2188L16.3358 11.3438C16.5548 11.07 16.5548 10.68 16.3358 10.4062L14.8358 8.53125ZM3.21075 4.125L4.11 3H12.75L12.7515 5.25H4.11L3.21075 4.125ZM13.89 12H5.25V9.75H13.89L14.79 10.875L13.89 12Z" fill="#B2C1CF"/>
</svg>
