<svg width="18" height="18" viewBox="0 0 18 18" fill="none" xmlns="http://www.w3.org/2000/svg">
<path fill-rule="evenodd" clip-rule="evenodd" d="M8.25 15.0003V14.0935C7.755 14.194 7.2525 14.2465 6.75 14.2458C4.82925 14.2458 2.90925 13.5145 1.44675 12.0528L2.50725 10.9923C4.8465 13.3323 8.6535 13.3308 10.9927 10.9923C13.332 8.65304 13.332 4.84679 10.9927 2.50679L12.0532 1.44629C14.9767 4.37129 14.9767 9.13004 12.0532 12.0535C11.3707 12.736 10.5855 13.2528 9.75 13.6165V15.0003H11.25V16.5003H9.75H8.25H6.75V15.0003H8.25ZM2.25 6.75029C2.25 9.23204 4.26825 11.2503 6.75 11.2503C9.23175 11.2503 11.25 9.23204 11.25 6.75029C11.25 4.26854 9.23175 2.25029 6.75 2.25029C4.26825 2.25029 2.25 4.26854 2.25 6.75029ZM9.75 6.75029C9.75 8.40479 8.4045 9.75029 6.75 9.75029C5.0955 9.75029 3.75 8.40479 3.75 6.75029C3.75 5.09579 5.0955 3.75029 6.75 3.75029C8.4045 3.75029 9.75 5.09579 9.75 6.75029Z" fill="#B2C1CF"/>
</svg>
