<svg width="18" height="18" viewBox="0 0 18 18" fill="none" xmlns="http://www.w3.org/2000/svg">
<path fill-rule="evenodd" clip-rule="evenodd" d="M3.75 16.5H14.25C15.0773 16.5 15.75 15.8273 15.75 15V6V4.5C15.75 3.67275 15.0773 3 14.25 3H12.75V1.5H11.25V3H6.75V1.5H5.25V3H3.75C2.92275 3 2.25 3.67275 2.25 4.5V6V15C2.25 15.8273 2.92275 16.5 3.75 16.5ZM14.25 6L14.2508 15H3.75V6H14.25ZM5.25 8.25H6.75V9.75H5.25V8.25ZM5.25 11.25H6.75V12.75H5.25V11.25ZM9.75 8.25H8.25V9.75H9.75V8.25ZM8.25 11.25H9.75V12.75H8.25V11.25ZM12.75 8.25H11.25V9.75H12.75V8.25ZM11.25 11.25H12.75V12.75H11.25V11.25Z" fill="#B2C1CF"/>
</svg>
