<svg xmlns="http://www.w3.org/2000/svg" width="19" height="18" viewBox="0 0 19 18">
    <path fill="#B2C1CF" fill-rule="evenodd" d="M14.25 9.75h-1.5v1.5h.685c-.327 1.852-1.833 3.353-3.685 3.68V9.75h1.5v-1.5h-1.5V7.002c1.157-.344 2.036-1.442 2.036-2.716C11.786 2.75 10.536 1.5 9 1.5S6.214 2.75 6.214 4.286c0 1.274.879 2.372 2.036 2.716V8.25h-1.5v1.5h1.5v5.18c-1.853-.327-3.36-1.828-3.685-3.68h.685v-1.5h-1.5c-.415 0-.75.335-.75.75 0 2.998 2.336 5.562 5.25 5.945v.055h1.5v-.055C12.664 16.062 15 13.498 15 10.5c0-.415-.335-.75-.75-.75zM7.714 4.286C7.714 3.577 8.291 3 9 3c.709 0 1.286.577 1.286 1.286C10.286 5 9.684 5.625 9 5.625s-1.286-.626-1.286-1.339z"/>
</svg>
