<svg xmlns="http://www.w3.org/2000/svg" width="18" height="18" viewBox="0 0 18 18">
    <path fill="#B2C1CF" fill-rule="evenodd" d="M14.836 8.531c-.143-.178-.358-.281-.586-.281h-4.5v-1.5h3c.827 0 1.5-.673 1.5-1.5V3c0-.827-.673-1.5-1.5-1.5h-9c-.228 0-.443.103-.586.281l-1.5 1.875c-.219.274-.219.664 0 .938l1.5 1.875c.143.177.358.281.586.281h4.5v1.5h-3c-.827 0-1.5.673-1.5 1.5V12c0 .827.673 1.5 1.5 1.5h3v3h1.5v-3h4.5c.228 0 .443-.104.586-.281l1.5-1.875c.219-.274.219-.664 0-.938l-1.5-1.875zM3.21 4.125L4.11 3h8.64l.002 2.25H4.11l-.9-1.125zM13.89 12H5.25V9.75h8.64l.9 1.125-.9 1.125z"/>
</svg>
