<svg xmlns="http://www.w3.org/2000/svg" width="17" height="16" viewBox="0 0 17 16">
    <path fill="#FFF" fill-rule="evenodd" d="M2.762 14c.054 0 .108-.007.161-.02l2.667-.667c.117-.029.225-.09.31-.175l8.195-8.195c.252-.252.39-.587.39-.943s-.138-.69-.39-.943L13.038 2c-.504-.504-1.381-.504-1.885 0l-8.196 8.195c-.085.086-.146.193-.175.31l-.667 2.666c-.057.228.01.468.176.634.126.126.296.195.47.195zm9.333-11.057L13.153 4l-1.058 1.057L11.038 4l1.057-1.057zm-8.064 8.064l6.064-6.064L11.153 6l-6.066 6.065-1.41.352.354-1.41z"/>
</svg>
