<svg xmlns="http://www.w3.org/2000/svg" width="16" height="16" viewBox="0 0 16 16">
    <path fill="#7E98AE" fill-rule="evenodd" d="M8.667 1.333c.735 0 1.333.598 1.333 1.334v.398c.45.187.876.437 1.264.742l.353-.204c.615-.356 1.466-.126 1.82.488l.666 1.152c.368.637.15 1.454-.487 1.822l-.337.194c.036.246.054.494.054.741s-.018.495-.054.742l.337.195c.637.367.855 1.184.487 1.821l-.666 1.153c-.355.612-1.205.84-1.82.487l-.353-.204c-.388.304-.814.554-1.264.74v.4c0 .735-.598 1.333-1.333 1.333H7.333c-.735 0-1.333-.598-1.333-1.334v-.398c-.45-.187-.876-.437-1.264-.742l-.353.204c-.614.354-1.466.125-1.82-.486l-.666-1.154c-.368-.636-.15-1.454.487-1.822l.337-.194c-.036-.246-.054-.494-.054-.741s.018-.495.054-.741l-.337-.195c-.637-.367-.855-1.185-.487-1.821l.666-1.153c.354-.613 1.204-.842 1.82-.488l.353.204c.388-.304.814-.554 1.264-.74v-.4c0-.735.598-1.333 1.333-1.333zm0 1.334H7.333v.866c0 .293-.191.552-.472.638-.584.178-1.134.501-1.589.932-.214.205-.536.242-.792.095l-.763-.441-.666 1.152.749.434c.258.148.385.45.313.738C4.04 7.383 4 7.692 4 8c0 .307.039.617.114.919.071.288-.056.59-.314.738l-.75.434.667 1.153.763-.441c.104-.06.219-.09.333-.09.167 0 .332.062.459.184.455.431 1.005.753 1.59.932.28.086.471.345.471.638v.866h1.335l-.001-.866c0-.293.191-.552.472-.638.584-.178 1.134-.501 1.589-.932.214-.206.537-.242.792-.095l.763.44.666-1.152-.749-.433c-.258-.148-.385-.45-.314-.738.075-.302.114-.612.114-.919 0-.308-.039-.617-.113-.919-.072-.288.055-.589.313-.738l.75-.433-.667-1.153-.763.441c-.255.147-.578.11-.792-.095-.455-.431-1.005-.753-1.59-.932-.28-.086-.471-.345-.471-.638v-.866zM8 5.333c1.47 0 2.667 1.196 2.667 2.667 0 1.47-1.196 2.667-2.667 2.667-1.47 0-2.667-1.196-2.667-2.667C5.333 6.53 6.53 5.333 8 5.333zm0 1.334c-.723 0-1.333.61-1.333 1.333S7.277 9.333 8 9.333 9.333 8.723 9.333 8 8.723 6.667 8 6.667z"/>
</svg>
