<svg xmlns="http://www.w3.org/2000/svg" width="18" height="18" viewBox="0 0 18 18">
    <path fill="#B2C1CF" fill-rule="evenodd" d="M12.053 1.446c2.924 2.925 2.924 7.684 0 10.607-.682.683-1.468 1.2-2.303 1.563V15h1.5v1.5h-4.5V15h1.5v-.907c-.495.1-.998.153-1.5.152-1.92 0-3.84-.73-5.303-2.192l1.06-1.061c2.34 2.34 6.146 2.338 8.486 0 2.339-2.34 2.339-6.146 0-8.486zM6.75 2.25c2.482 0 4.5 2.018 4.5 4.5s-2.018 4.5-4.5 4.5-4.5-2.018-4.5-4.5 2.018-4.5 4.5-4.5zm0 1.5c-1.655 0-3 1.345-3 3s1.345 3 3 3 3-1.345 3-3-1.345-3-3-3z"/>
</svg>
