<svg xmlns="http://www.w3.org/2000/svg" width="25" height="24" viewBox="0 0 25 24">
    <path fill="#003360" fill-rule="evenodd" d="M10.493 2c4.411 0 8 3.589 8 8 0 1.846-.635 3.543-1.689 4.898l4.396 4.396-1.414 1.414-4.396-4.396C14.036 17.365 12.339 18 10.493 18c-4.411 0-8-3.589-8-8s3.589-8 8-8zm0 2c-3.309 0-6 2.691-6 6s2.691 6 6 6 6-2.691 6-6-2.691-6-6-6zM7.667 7.172c1.513-1.512 4.138-1.512 5.652 0 .758.759 1.174 1.763 1.174 2.828h-2c0-.532-.209-1.034-.588-1.414-.756-.754-2.066-.756-2.826.002z"/>
</svg>
