<svg xmlns="http://www.w3.org/2000/svg" width="16" height="16" viewBox="0 0 16 16">
    <path fill="#B2C1CF" fill-rule="evenodd" d="M6.667 1.333C9.607 1.333 12 3.726 12 6.667c0 1.23-.423 2.362-1.126 3.265l2.93 2.93-.942.943-2.93-2.93C9.028 11.577 7.896 12 6.666 12c-2.941 0-5.334-2.393-5.334-5.333 0-2.941 2.393-5.334 5.334-5.334zm0 1.334c-2.206 0-4 1.794-4 4s1.794 4 4 4 4-1.794 4-4-1.794-4-4-4zM4.783 4.78c1.008-1.008 2.758-1.008 3.768 0 .505.506.782 1.176.782 1.886H8c0-.355-.14-.69-.392-.943-.504-.503-1.377-.504-1.884.001z"/>
</svg>
